<?xml version="1.0" encoding="UTF-8"?>
<svg id="Layer_2" xmlns="http://www.w3.org/2000/svg" viewBox="0 0 872.95 939.66">
  <defs>
    <style>
      .cls-1 {
        fill: none;
        stroke: #000;
        stroke-miterlimit: 10;
        stroke-width: 6px;
      }
    </style>
  </defs>
  <g id="Layer_1-2" data-name="Layer_1">
    <path class="cls-1" d="M37.11,646.69c-40.66-56.51-47.4-151.55-7-240,1.99-4.35,36.17-78.25,123-111,50.93-19.21,93.91-11.18,146-39,4.93-2.63,62.29-33.07,90-92,14.33-30.46,10.34-63.74,9-68-6.9-21.94-27.33-26.68-30-45-2.83-19.37,15.21-38.36,38-46,26.96-9.04,47.8,6.12,53,24,4.55,15.64-15.18,24.49-23,54-7.38,27.85,7.12,67.31,16,82,24.98,41.33,88.51,30.91,156,48,128.37,32.51,201.95,154.03,213,179,41.02,92.67,55.58,167.97,46,227-1.86,11.48-12.67,66.62-19,63-16.94-9.7-38.52-133.66-57-191-13.23-41.07-37.29-98.9-51-119-8.98-13.18-37.95-14.3-46-12-13.78,3.94-19.89,52.54-17,78,3.19,28.11,10.15,73.45,9,89-3.66,49.35,10.74,39.6-28,191-17.21,67.26-21.36,70.48-20,80,8.11,56.96,37.02,85.54,25.05,121.07-5.97,17.71-8.93,15.55-25.59,16.45-31.51,1.71-63.03-45.67-65.8-51.18-12.67-25.27-8.13-39.15-25.59-95.04-2.55-8.15.26.62-5.48-5.48-9.8-10.41-30.94-21.14-73.11-14.62-66.73,10.32-68.97,8.69-74.02,14.62-15.6,18.31-.78,37.24-9.14,70.37-12.2,48.34-64.44,89.93-88.64,80.42-26.95-10.59-19.24-60.71,6.4-112.4,5.02-10.12-37.06-51.67-45.08-66.2-5.36-9.71-67.82-134.09-78-190-26.08-143.24-38.98-168.3-52-170-18.93-2.47-44.02,43.13-53,76-5.14,18.82-24.94,65.15-21,103,7.35,70.58,46.59,140.75,40,146-5.24,4.17-30.92-40.14-56-75Z"/>
  </g>
</svg>